<svg height="512" width="512" xmlns="http://www.w3.org/2000/svg">
<style>
path { fill: black; fill-rule: nonzero; }
</style>
<g transform="translate(8 8) scale(0.49353233) translate(149 753.75) scale(1 -1)">
<path d="M156,335 c0,150,59,299,198,299 c139,0,196,-149,196,-299 c0,-151,-57,-300,-196,-300 c-139,0,-198,149,-198,300 z M612,-148 c-32,-9,-58,-12,-78,-12 c-83,0,-135,53,-138,148 c139,21,264,147,264,347 c0,228,-152,349,-306,349 c-155,0,-307,-130,-307,-349 c0,-203,119,-322,255,-345 c2,-111,73,-206,198,-206 c41,0,89,10,123,32 z"/>
</g>
</svg>