<svg height="512" width="512" xmlns="http://www.w3.org/2000/svg">
<style>
path { fill: black; fill-rule: nonzero; }
</style>
<g transform="translate(8 8) scale(0.700565) translate(54 580) scale(1 -1)">
<path d="M516,-52 l31,-36 q-57,-40,-101,-40 q-31,0,-85,24 q-45,20,-78,20 q-30,0,-53,-9 q-23,-9,-65,-32 l-23,37 q54,35,85,81 q-84,26,-134,105 q-50,79,-50,183 q0,137,75,218 q75,81,181,81 q110,0,184,-84 q74,-84,74,-219 q0,-54,-14.5,-104 q-14.5,-50,-44.5,-94.5 q-30,-44.5,-85.5,-70.5 q-55.5,-26,-129.5,-25 q-3,-4,-7,-8 q-4,-4,-9,-9 q-1,-1,-2,-2 l-2,0 l0,-2 q2,0,9,0.5 q7,0.5,13,0.5 q39,0,88,-20 q52,-21,69,-21 q35,0,74,26 z M97,282 q0,-98,54.5,-173.5 q54.5,-75.5,148.5,-75.5 q94,0,148.5,74.5 q54.5,74.5,54.5,174.5 q0,101,-55,174.5 q-55,73.5,-148,73.5 q-96,0,-149.5,-75.5 q-53.5,-75.5,-53.5,-172.5 z"/>
</g>
</svg>