<svg height="1331" width="550" xmlns="http://www.w3.org/2000/svg">
<style>
path { fill: black; fill-rule: nonzero; }
</style>
<g transform="translate(0, 972) scale(1, -1)">
<path d="M33,-3 q-4,4,-4,17 q0,12,4,12 q8,0,22,3 q14,3,26,8 q12,5,13,9 q4,14,5.5,32 q1.5,18,1.5,38 l0,189 q0,38,-14,54 q-10,12,-23.5,16 q-13.5,4,-24,4.5 q-10.5,0.5,-10.5,2.5 q0,24,6,25 q53,8,86,14.5 q33,6.5,41,8.5 l16,4 q4,1,5,-8 q1,-9,0,-13 q-2,-14,-3,-24 q-1,-10,-1,-16 q0,-4,2,-4 q1,0,3,2 q23,24,62.5,45.5 q39.5,21.5,75.5,21.5 q70,0,98,-50 q28,-50,28,-162 l0,-91 q0,-29,2,-51 q2,-22,6,-38 q2,-4,14,-9 q12,-5,26,-8 q14,-3,20,-3 q3,0,4,-12 q1,-12,-1,-17 l-107,5 l-105,-5 q-4,4,-4,17 q0,12,4,12 q8,0,21,3 q13,3,24,8 q11,5,12,9 q4,14,5.5,32 q1.5,18,1.5,38 l0,100 q0,93,-24,127 q-24,34,-78,34 q-21,0,-42,-11.5 q-21,-11.5,-35,-26.5 q-14,-15,-14,-28 l0,-176 q0,-29,2,-51 q2,-22,6,-38 q2,-4,14,-9 q12,-5,26,-8 q14,-3,20,-3 q3,0,4,-12 q1,-12,-1,-17 l-107,5 l-109,-5 z"/>
</g>
</svg>