<svg height="1331" width="509" xmlns="http://www.w3.org/2000/svg">
<style>
path { fill: black; fill-rule: nonzero; }
</style>
<g transform="translate(0, 972) scale(1, -1)">
<path d="M256,-7 q-60,0,-110,30 q-50,30,-79.5,81 q-29.5,51,-29.5,112 q0,62,28.5,112 q28.5,50,77.5,79.5 q49,29.5,111,29.5 q60,0,109.5,-30 q49.5,-30,79,-80 q29.5,-50,29.5,-111 q0,-61,-29,-112 q-29,-51,-77.5,-81 q-48.5,-30,-109.5,-30 z M265,32 q36,0,63,23 q27,23,42.5,62 q15.5,39,15.5,85 q0,54,-20,98.5 q-20,44.5,-52.5,71 q-32.5,26.5,-70.5,26.5 q-35,0,-62.5,-22.5 q-27.5,-22.5,-42.5,-60 q-15,-37.5,-15,-84.5 q0,-54,19.5,-99.5 q19.5,-45.5,52,-72.5 q32.5,-27,70.5,-27 z"/>
</g>
</svg>