<svg height="1331" width="490" xmlns="http://www.w3.org/2000/svg">
<style>
path { fill: black; fill-rule: nonzero; }
</style>
<g transform="translate(0, 972) scale(1, -1)">
<path d="M21,-226 q-4,4,-4,16 q0,13,4,13 q8,0,22,3 q14,3,26,8 q12,5,13,9 q4,14,5.5,32 q1.5,18,1.5,38 l0,413 q0,38,-14,54 q-10,12,-23.5,16 q-13.5,4,-24,4.5 q-10.5,0.5,-10.5,2.5 q0,24,6,25 q106,16,136,25 l7,2 q5,0,4,-10.5 q-1,-10.5,-2,-17.5 l-1,-6 q10,7,28,15 q18,8,38.5,14 q20.5,6,35.5,6 q68,0,113.5,-30.5 q45.5,-30.5,68,-77 q22.5,-46.5,22.5,-94.5 q0,-48,-18,-91.5 q-18,-43.5,-49,-77.5 q-31,-34,-70.5,-53.5 q-39.5,-19.5,-81.5,-19.5 q-31,0,-47,4.5 q-16,4.5,-37,14.5 q-4,-4,-4,-13 l0,-86 q0,-29,2,-51 q2,-22,6,-38 q2,-4,14,-9 q12,-5,26,-8 q14,-3,20,-3 q3,0,4,-12.5 q1,-12.5,-1,-16.5 l-107,5 l-109,-5 z M258,34 q40,0,68.5,24.5 q28.5,24.5,44.5,64 q16,39.5,16,83.5 q0,56,-20.5,96.5 q-20.5,40.5,-54.5,62.5 q-34,22,-75,22 q-31,0,-51,-16.5 q-20,-16.5,-20,-47.5 l0,-225 q0,-27,29,-45.5 q29,-18.5,63,-18.5 z"/>
</g>
</svg>