<svg height="512" width="512" xmlns="http://www.w3.org/2000/svg">
<style>
path { fill: black; fill-rule: nonzero; }
</style>
<g>
<g transform="translate(8 8) scale(0.09693179) translate(670.25 1918.875) scale(1 -1)">
<path d="M639,1116 q92,0,164,-49.5 q72,-49.5,112,-142.5 l11,0 l67,172 l127,0 l-233,-1096 l-133,0 l26,209 l-8,0 q-179,-229,-377,-229 q-139,0,-218,99 q-79,99,-79,271 q0,208,71,386 q71,178,196,279 q125,101,274,101 z M449,119 q97,0,193,92.5 q96,92.5,156,241 q60,148.5,60,297.5 q0,103,-56,164 q-56,61,-147,61 q-104,0,-193.5,-86 q-89.5,-86,-140.5,-233 q-51,-147,-51,-310 q0,-114,47,-170.5 q47,-56.5,132,-56.5 z"/>
</g>
<g transform="translate(264 8) scale(0.09693179) translate(978.25 1918.875) scale(1 -1)">
<path d="M227,0 l-168,0 l234,1096 l168,0 l-234,-1096 z M340,1376 q0,56,32,91.5 q32,35.5,83,35.5 q88,0,88,-90 q0,-55,-33.5,-93 q-33.5,-38,-77.5,-38 q-40,0,-66,24.5 q-26,24.5,-26,69.5 z"/>
</g>
<g transform="translate(8 264) scale(0.09693179) translate(498.75 1918.875) scale(1 -1)">
<path d="M874,1333 q-157,0,-281,-101 q-124,-101,-192.5,-281 q-68.5,-180,-68.5,-398 q0,-199,98,-310.5 q98,-111.5,266,-111.5 q158,0,279,100 q121,100,187.5,280.5 q66.5,180.5,66.5,399.5 q0,199,-94,310.5 q-94,111.5,-261,111.5 z M725,-18 l-17,-2 l-16,0 q-256,0,-399,149.5 q-143,149.5,-143,419.5 q0,264,96,482 q96,218,263.5,336 q167.5,118,377.5,118 q244,0,384,-154 q140,-154,140,-424 q0,-333,-139,-576 q-139,-243,-375,-321 l274,-358 l-219,0 l-227,330 z"/>
</g>
<g transform="translate(264 264) scale(0.09693179) translate(207.25 1918.875) scale(1 -1)">
<path d="M1257,0 l-170,0 l-49,965 q-8,136,-8,282 l-6,0 q-25,-72,-61,-154.5 q-36,-82.5,-504,-1092.5 l-174,0 l-62,1462 l170,0 l31,-901 l2,-88 q0,-98,-10,-258 l6,0 q89,243,156,383 l405,864 l178,0 l43,-860 q9,-153,9,-304 l-1,-83 l9,0 q75,224,131,354 l387,893 l182,0 l-664,-1462 z"/>
</g>
</g>
</svg>