<svg height="512" width="512" xmlns="http://www.w3.org/2000/svg">
<style>
path { fill: black; fill-rule: nonzero; }
</style>
<g>
<g transform="translate(8 8) scale(0.090726174) translate(796.75 2050.125) scale(1 -1)">
<path d="M732,107 q-28,-101,-109,-141 q-38,-19,-77,-27.5 q-39,-8.5,-101,-8.5 q-62,0,-130,26 q-42,16,-74.5,42 q-32.5,26,-59.5,72.5 q-27,46.5,-38,106 q-11,59.5,-67,127.5 q-18,21,-18,26 q0,5,35.5,45.5 q35.5,40.5,44.5,82.5 q29,135,132,190 q45,25,97,42 q52,17,100.5,31 q48.5,14,88.5,33.5 q40,19.5,64,57 q24,37.5,24,110 q0,72.5,-5,134.5 q-3,38,-10.5,58 q-7.5,20,-19.5,39 q-12,19,-31,26.5 q-19,7.5,-53,7.5 q-34,0,-59,-29 q-25,-29,-25,-73 q0,-44,30.5,-106.5 q30.5,-62.5,83.5,-75.5 q-27,-64,-89.5,-64 q-62.5,0,-115.5,41 q5,-5,-22,-49 q-12,-20,-29,-40 q-17,-20,-44,-34 q-27,-14,-55,-14 q-28,0,-40,15 q52,52,52,98 q0,17,-14,72.5 q-14,55.5,-14,82.5 q0,122,93,197 q41,34,114,69 q73,35,168,35 q399,0,399,-436 q0,-105,40,-188 q19,-38,84,-76 q0,-4,-11.5,-12 q-11.5,-8,-28.5,-25.5 q-17,-17.5,-34,-44.5 q-17,-27,-28.5,-78 q-11.5,-51,-11.5,-150 q0,-99,26,-173.5 q26,-74.5,76,-127.5 q-9,-17,-38,-33 q-14,-7,-39.5,-12.5 q-25.5,-5.5,-59,-5.5 q-33.5,0,-67.5,17 q-85,42,-134,140 z M425,314 q0,-225,95,-225 q40,0,60,15 q12,8,21,16 q9,8,15.5,25 q6.5,17,17,43 q10.5,26,10.5,169 q0,0,0,173 q0,153,1,153 q-26,-27,-83,-70 q-57,-43,-91,-87 q-46,-59,-46,-190 l-0,-22 z"/>
</g>
<g transform="translate(264 8) scale(0.090726174) translate(1061.75 2050.125) scale(1 -1)">
<path d="M155,1310 q87,0,150,-77 q31,46,99,69 q25,8,51,8 q26,0,45,-5.5 q19,-5.5,28,-13.5 q20,-16,23,-35 q-63,-61,-86.5,-128 q-23.5,-67,-23.5,-176 q0,-109,10,-171.5 q10,-62.5,25,-90 q15,-27.5,29.5,-41.5 q14.5,-14,24.5,-21.5 q10,-7.5,10,-15 q0,-7.5,-10,-15 q-10,-7.5,-24.5,-23.5 q-14.5,-16,-29.5,-43 q-35,-63,-35,-199 q0,-136,24,-204.5 q24,-68.5,86,-124.5 q0,-32,-51,-48 q-19,-6,-53,-6 q-34,0,-71.5,19.5 q-37.5,19.5,-53.5,38.5 l-17,19 q-31,-46,-99,-68 q-25,-9,-58,-9 q-33,0,-57,13.5 q-24,13.5,-28,27.5 l-4,13 q62,56,86,124.5 q24,68.5,24,166.5 q0,98,-10,154 q-10,56,-24.5,83 q-14.5,27,-29.5,43 q-15,16,-25,23.5 q-10,7.5,-10,15 q0,7.5,10,15 q10,7.5,25,21.5 q15,14,29,41 q35,66,35,218 q0,152,-23.5,219 q-23.5,67,-86.5,129 q0,32,51,48 q19,6,45,6 z M303,1754 l210,-184 l-211,-190 l-53,46 q-53,45,-105,91 l-53,46 q0,6,101.5,98.5 q101.5,92.5,110.5,92.5 z"/>
</g>
<g transform="translate(8 264) scale(0.090726174) translate(747.75 2050.125) scale(1 -1)">
<path d="M496,440 q0,0,0,-75 q0,-130,10.5,-152 q10.5,-22,17.5,-37 q7,-15,16.5,-21.5 q9.5,-6.5,21.5,-14.5 q36,-21,100,-9 q49,9,67,48 q25,53,27,115 q2,62,2,82 l0,56 q0,233,-76,304 q-9,9,-9,14 q0,5,13.5,20 q13.5,15,29,39.5 q15.5,24.5,29,97.5 q13.5,73,13.5,152 q0,79,-0.5,105 q-0.5,26,-2,62 q-1.5,36,-5,54 q-3.5,18,-10,41 q-6.5,23,-16,33 q-9.5,10,-22.5,20 q-23,18,-65.5,18 q-42.5,0,-65,-6.5 q-22.5,-6.5,-37,-25.5 q-14.5,-19,-22.5,-37.5 q-8,-18.5,-12,-60.5 q-5,-52,-5,-157 q0,-105,8.5,-170 q8.5,-65,21,-96 q12.5,-31,25,-49 q12.5,-18,21,-26.5 q8.5,-8.5,8.5,-14 q0,-5.5,-8.5,-15.5 q-8.5,-10,-20.5,-31 q-12,-21,-24,-53 q-30,-76,-30,-210 z M780.5,-180 q5.5,17,26.5,36 q21,19,60.5,19 q39.5,0,105.5,-29 q0,40,22,85 q42,88,119,88 q18,0,32,-7 q-24,-34,-24,-77 l16,-124 q0,-126,-89.5,-199.5 q-89.5,-73.5,-211.5,-73.5 q-112,0,-197,84 q-90,91,-90,263 q0,11,1,26 q-295,25,-365,286 q-25,94,-25,199 q0,105,-13,167 q-13,62,-31,94 q-18,32,-36,51.5 q-18,19.5,-31,28.5 q-13,9,-13,13 q0,4,13,12.5 q13,8.5,31,27 q18,18.5,36,49.5 q44,76,44,210 q0,134,13.5,214.5 q13.5,80.5,41.5,136 q28,55.5,65.5,92.5 q37.5,37,92.5,57.5 q55,20.5,114.5,28.5 q59.5,8,138.5,8 q79,0,138,-8 q59,-8,114,-28.5 q55,-20.5,92,-57.5 q37,-37,65,-92 q55,-110,55,-323 q0,-233,99,-315 q11,-9,11,-12.5 q0,-3.5,-13.5,-14 q-13.5,-10.5,-26,-25 q-12.5,-14.5,-31.5,-48.5 q-39,-71,-39,-241 q0,-335,-179,-447 q-95,-59,-248,-65 q-4,-26,-4,-51 q0,-91,43.5,-139 q43.5,-48,88.5,-48 q45,0,65.5,18 q20.5,18,20.5,41.5 q0,23.5,-19.5,39.5 q-19.5,16,-42,16 q-22.5,0,-40.5,-2 q-1,0,-1,9.5 q0,9.5,5.5,26.5 z"/>
</g>
<g transform="translate(264 264) scale(0.090726174) translate(423.25 2050.125) scale(1 -1)">
<path d="M1811,1562 q70,0,70,-52 l0,-7 q-86,-83,-135.5,-243.5 q-49.5,-160.5,-49.5,-349.5 q0,-72,10,-109.5 q10,-37.5,10,-38.5 q-119,-209,-174,-430 q-21,-85,-21,-162.5 q0,-77.5,53,-159.5 l0,-4 q0,-56,-113,-56 q-48,0,-81,28 q-53,46,-80,87 q-29,-71,-114,-103 q-35,-12,-72,-12 q-37,0,-59,15 q-22,15,-32,45 q60,82,60,185 q0,36,-13,99 q-13,63,-24,121 q-31,165,-74,331 l-15,59 q-58,-175,-106,-362.5 q-48,-187.5,-48,-269 q0,-81.5,53,-163.5 l0,-4 q0,-56,-113,-56 q-48,0,-81,28 q-53,46,-80,87 q-29,-71,-114,-103 q-35,-12,-72,-12 q-37,0,-59,15 q-22,15,-32,45 q60,82,60,185 q0,54,-26,167.5 q-26,113.5,-54.5,187.5 q-28.5,74,-51.5,107.5 q-23,33.5,-43,53.5 q-20,20,-31.5,29.5 q-11.5,9.5,-11.5,18.5 q0,9,8,19.5 q8,10.5,18,21.5 q26,30,26,120 q0,182,-53.5,342 q-53.5,160,-139.5,241 l0,4 q0,55,91.5,55 q91.5,0,177.5,-105 q53,105,161,105 q58,0,78,-15 q33,-25,41,-44 q-60,-80,-60,-190 q0,-57,14,-130 q14,-73,67,-423 q53,-350,58,-392 q52,166,52,224 q0,58,-8,89.5 q-8,31.5,-15.5,45.5 q-7.5,14,-7.5,18 q0,4,4,8 q153,177,153,524 q0,50,-17,98 q-17,48,-31,70 q-14,22,-40,58 l0,1 q0,18,22,33 q39,25,78.5,25 q39.5,0,64.5,-11 q25,-11,41,-26 q34,-31,53,-68 q2,4,5,11 q3,7,15,25.5 q12,18.5,27,32 q15,13.5,40,25 q25,11.5,54,11.5 q29,0,51.5,-6 q22.5,-6,34.5,-15 q25,-19,33,-38 q-63,-76,-63,-193 q0,-115,82,-503.5 q82,-388.5,90,-438.5 q32,167,32,229 q0,62,-7,94 q-7,32,-13.5,44.5 q-6.5,12.5,-5.5,18 q1,5.5,5.5,17 q4.5,11.5,16.5,47.5 q12,36,23,72.5 q11,36.5,24,89 q13,52.5,23,102.5 q22,116,22,233 q0,117,-53,188 q1,2,2,6 q1,4,7.5,14.5 q6.5,10.5,14.5,18.5 q22,20,55.5,20 q33.5,0,61,-11 q27.5,-11,42.5,-26 q34,-33,47,-68 q36,43,82,74 q46,31,80,31 z"/>
</g>
</g>
</svg>