<svg height="512" width="512" xmlns="http://www.w3.org/2000/svg">
<style>
path { fill: black; fill-rule: nonzero; }
</style>
<g>
<g transform="translate(8 8) scale(0.24676616) translate(228.5 753.75) scale(1 -1)">
<path d="M324,106 c-58,-41,-77,-55,-110,-55 c-24,0,-45,7,-60,23 c-12,12,-20,27,-20,53 c0,30,11,69,98,103 c21,8,57,20,92,30 z M483,64 l-5,-5 c-8,-8,-21,-17,-37,-17 c-22,0,-33,18,-33,59 l0,216 c0,126,-50,174,-155,174 c-102,0,-176,-50,-195,-126 c3,-26,19,-43,47,-43 c27,0,45,17,54,48 l20,69 c20,5,37,6,51,6 c66,0,94,-24,94,-121 l0,-27 c-40,-9,-82,-22,-113,-33 c-135,-49,-166,-95,-166,-152 c0,-83,61,-127,134,-127 c59,0,92,27,147,82 c8,-47,39,-77,96,-77 c32,0,58,10,81,52 z"/>
</g>
<g transform="translate(264 8) scale(0.24676616) translate(354.5 753.75) scale(1 -1)">
<path d="M153,598 c37,0,67,27,67,64 c0,39,-30,64,-67,64 c-38,0,-67,-25,-67,-64 c0,-37,29,-64,67,-64 z M198,50 c-1,50,-2,116,-2,160 l0,135 l3,136 l-15,10 l-155,-61 l0,-35 l79,-9 c2,-40,3,-71,3,-126 l0,-50 c0,-45,-1,-110,-2,-160 l-74,-14 l0,-36 l232,0 l0,36 z"/>
</g>
<g transform="translate(8 264) scale(0.24676616) translate(149 753.75) scale(1 -1)">
<path d="M156,335 c0,150,59,299,198,299 c139,0,196,-149,196,-299 c0,-151,-57,-300,-196,-300 c-139,0,-198,149,-198,300 z M612,-148 c-32,-9,-58,-12,-78,-12 c-83,0,-135,53,-138,148 c139,21,264,147,264,347 c0,228,-152,349,-306,349 c-155,0,-307,-130,-307,-349 c0,-203,119,-322,255,-345 c2,-111,73,-206,198,-206 c41,0,89,10,123,32 z"/>
</g>
<g transform="translate(264 264) scale(0.24676616) translate(18.5 753.75) scale(1 -1)">
<path d="M953,669 l-227,0 l0,-41 l91,-13 l-128,-464 l-148,465 l101,12 l0,41 l-272,0 l0,-41 l101,-12 l-153,-461 l-123,462 l92,11 l0,41 l-272,0 l0,-41 l83,-10 l180,-628 l43,0 l163,521 l173,-521 l43,0 l169,626 l84,12 z"/>
</g>
</g>
</svg>