<svg height="2059" width="1124" xmlns="http://www.w3.org/2000/svg">
<style>
path { fill: black; fill-rule: nonzero; }
</style>
<g transform="translate(0, 1567) scale(1, -1)">
<path d="M729,0 l148,692 q20,104,20,144 q0,63,-35.5,101 q-35.5,38,-113.5,38 q-89,0,-173.5,-60 q-84.5,-60,-149,-171 q-64.5,-111,-97.5,-269 l-101,-475 l-168,0 l234,1096 l139,0 l-22,-203 l10,0 q96,122,185.5,172.5 q89.5,50.5,185.5,50.5 q127,0,200.5,-69.5 q73.5,-69.5,73.5,-194.5 q0,-79,-23,-180 l-143,-672 l-170,-0 z"/>
</g>
</svg>