<svg height="2059" width="1151" xmlns="http://www.w3.org/2000/svg">
<style>
path { fill: black; fill-rule: nonzero; }
</style>
<g transform="translate(0, 1567) scale(1, -1)">
<path d="M643,1110 q190,0,300,-112.5 q110,-112.5,110,-309.5 q0,-188,-72,-355 q-72,-167,-195,-258 q-123,-91,-278,-91 q-192,0,-301,113 q-109,113,-109,309 q0,190,73,357.5 q73,167.5,197,257 q124,89.5,275,89.5 z M879,711 q0,115,-62.5,186.5 q-62.5,71.5,-169.5,71.5 q-109,0,-195.5,-74 q-86.5,-74,-134,-205.5 q-47.5,-131.5,-47.5,-292.5 q0,-131,63.5,-202.5 q63.5,-71.5,182.5,-71.5 q104,0,187,73 q83,73,129.5,207.5 q46.5,134.5,46.5,307.5 z"/>
</g>
</svg>