<svg height="2059" width="1038" xmlns="http://www.w3.org/2000/svg">
<style>
path { fill: black; fill-rule: nonzero; }
</style>
<g transform="translate(0, 1567) scale(1, -1)">
<path d="M545,-20 q-97,0,-170,50 q-73,50,-113,140 l-10,0 l-4,-38 q-3,-25,-10.5,-70 q-7.5,-45,-114.5,-554 l-166,0 l336,1588 l139,0 l-26,-209 l8,0 q179,227,372,227 q137,0,216,-97.5 q79,-97.5,79,-273.5 q0,-212,-69,-389 q-69,-177,-191,-275.5 q-122,-98.5,-276,-98.5 z M731,975 q-96,0,-195.5,-95 q-99.5,-95,-158,-239 q-58.5,-144,-58.5,-295 q0,-110,55.5,-168.5 q55.5,-58.5,160.5,-58.5 q99,0,184.5,81 q85.5,81,137.5,230.5 q52,149.5,52,317.5 q0,227,-178,227 z"/>
</g>
</svg>