<svg height="512" width="512" xmlns="http://www.w3.org/2000/svg">
<style>
path { fill: black; fill-rule: nonzero; }
</style>
<g>
<g transform="translate(8 8) scale(0.18632607) translate(437.5 972) scale(1 -1)">
<path d="M145,-7 q-46,0,-76,24.5 q-30,24.5,-30,73.5 q0,60,78,100 q34,17,67.5,27 q33.5,10,67.5,23 q9,3,9,15 l0,75 q0,32,-20,49.5 q-20,17.5,-48,17.5 q-30,0,-50,-20.5 q-20,-20.5,-20,-53.5 q0,-35,-41,-35 q-29,0,-39,19 q0,21,17.5,43.5 q17.5,22.5,45.5,41.5 q28,19,61.5,31 q33.5,12,66.5,12 q55,0,79,-26.5 q24,-26.5,24,-85.5 l0,-231 q0,-21,11,-35 q11,-14,30,-14 q13,0,35,14 q4,0,4,-8 q0,-13,-5,-21 q-41,-35,-70,-35 q-23,0,-44,19 q-21,19,-29,40 q-5,-4,-12.5,-10.5 q-7.5,-6.5,-12.5,-10.5 q-21,-16,-45.5,-27.5 q-24.5,-11.5,-53.5,-11.5 z M183,50 q28,0,53,16 q25,16,25,34 l0,103 q-26,-10,-49.5,-18 q-23.5,-8,-37.5,-13 q-18,-7,-34.5,-25 q-16.5,-18,-16.5,-41 q0,-30,18.5,-43 q18.5,-13,41.5,-13 z"/>
</g>
<g transform="translate(264 8) scale(0.18632607) translate(522.5 972) scale(1 -1)">
<path d="M36,-3 q-4,4,-4,17 q0,12,4,12 q8,0,22,3 q14,3,26,8 q12,5,13,9 q4,14,5.5,32 q1.5,18,1.5,38 l0,189 q0,38,-14,54 q-10,13,-24,16.5 q-14,3.5,-24,4 q-10,0.5,-10,2.5 q0,24,6,25 q53,8,81,13.5 q28,5.5,50,10.5 l12,3 q4,1,5,-8 q1,-9,0,-13 q-2,-20,-3.5,-38 q-1.5,-18,-1.5,-34 l0,-206 q0,-29,2,-51 q2,-22,6,-38 q2,-4,14,-9 q12,-5,26,-8 q14,-3,20,-3 q3,0,4,-12 q1,-12,-1,-17 l-107,5 l-109,-5 z M135,543 q-20,0,-35,15 q-15,15,-15,35 q0,21,15,35.5 q15,14.5,35,14.5 q21,0,35.5,-14.5 q14.5,-14.5,14.5,-35.5 q0,-20,-14.5,-35 q-14.5,-15,-35.5,-15 z"/>
</g>
<g transform="translate(8 264) scale(0.18632607) translate(257.5 972) scale(1 -1)">
<path d="M604,-136 q-47,0,-104,26 q-61,28,-117.5,61 q-56.5,33,-105.5,49 q-36,11,-74,37 q-38,26,-75,66 q-37,40,-60.5,99.5 q-23.5,59.5,-23.5,125.5 q0,70,25,131.5 q25,61.5,68.5,108 q43.5,46.5,101.5,73 q58,26.5,124,26.5 q66,0,124,-26.5 q58,-26.5,102,-73 q44,-46.5,69,-108 q25,-61.5,25,-131.5 q0,-64,-20,-119.5 q-20,-55.5,-53,-98.5 q-33,-43,-72.5,-70 q-39.5,-27,-78.5,-35 q14,-7,32.5,-17 q18.5,-10,42.5,-24 q32,-18,55.5,-28.5 q23.5,-10.5,47.5,-15 q24,-4.5,55,-4.5 q29,0,46.5,4 q17.5,4,21.5,4 q12,0,12,-20 l0,-5 q-67,-35,-168,-35 z M379,33 q64,0,111,39 q47,39,72.5,102 q25.5,63,25.5,135 q0,63,-16.5,119.5 q-16.5,56.5,-48,101 q-31.5,44.5,-76,70 q-44.5,25.5,-99.5,25.5 q-63,0,-110,-38.5 q-47,-38.5,-73,-101.5 q-26,-63,-26,-135 q0,-63,16.5,-120 q16.5,-57,48,-101.5 q31.5,-44.5,76,-70 q44.5,-25.5,99.5,-25.5 z"/>
</g>
<g transform="translate(264 264) scale(0.18632607) translate(127 972) scale(1 -1)">
<path d="M405,-8 q-6,0,-9,5 l-260,517 q-14,29,-29,53 q-15,24,-29,43 q-8,10,-27,16.5 q-19,6.5,-31,6.5 q-4,0,-4,13 q0,12,4,16 l126,-5 l105,5 q2,-4,1.5,-16.5 q-0.5,-12.5,-3.5,-12.5 q-16,0,-33,-7.5 q-17,-7.5,-17,-21.5 q0,-30,23,-74 l207,-410 q3,-5,8,-2.5 q5,2.5,7,7.5 l83,173 l-105,216 q-14,29,-29,53 q-15,24,-29,43 q-8,10,-27,16.5 q-19,6.5,-31,6.5 q-4,0,-4,15 q0,10,4,14 l126,-5 l104,5 q2,-4,1.5,-16.5 q-0.5,-12.5,-3.5,-12.5 q-16,0,-32.5,-7 q-16.5,-7,-16.5,-22 q0,-13,5.5,-31.5 q5.5,-18.5,17.5,-42.5 l66,-135 l70,147 q14,29,14,58 q0,17,-21.5,25 q-21.5,8,-37.5,8 q-4,0,-4,13 q0,12,4,16 q40,-2,65.5,-4 q25.5,-2,35.5,-1 l104,5 q2,-4,1.5,-16.5 q-0.5,-12.5,-3.5,-12.5 q-6,0,-20,-3.5 q-14,-3.5,-28,-10 q-14,-6.5,-21,-14.5 q-9,-11,-23.5,-36.5 q-14.5,-25.5,-34.5,-66.5 l-77,-158 l109,-224 q5,-9,12,5 l179,411 q9,20,13,36 q4,16,4,27 q0,17,-20.5,25.5 q-20.5,8.5,-36.5,8.5 q-4,0,-4,13 q0,12,4,16 q40,-2,65.5,-3.5 q25.5,-1.5,36.5,-1.5 q29,0,54,2 q25,2,45,3 q2,-8,2,-15 q0,-14,-4,-14 q-10,0,-32,-7.5 q-22,-7.5,-33,-20.5 q-28,-34,-58,-101 l-212,-480 q-14,-32,-39,-32 q-6,0,-9,5 l-122,250 l-108,-223 q-15,-32,-39,-32 z"/>
</g>
</g>
</svg>