<svg height="512" width="512" xmlns="http://www.w3.org/2000/svg">
<style>
path { fill: black; fill-rule: nonzero; }
</style>
<g>
<g transform="translate(8 8) scale(0.103075646) translate(588.5 1853) scale(1 -1)">
<path d="M238.5,62.5 q-115.5,93.5,-115.5,255 q0,161.5,118.5,255 q118.5,93.5,331.5,93.5 l349,0 l0,10 q0,307,-308,307 q-96,0,-163.5,-46 q-67.5,-46,-92.5,-118 q-6,-20,-24,-20 l-129,0 q-23,0,-21,20 q16,139,132,223 q116,84,298,84 q238,0,365,-117.5 q127,-117.5,127,-332.5 l0,-656 q0,-20,-21,-20 l-112,0 q-20,0,-23,20 l-18,113 q-12,-19,-53,-52.5 q-41,-33.5,-82,-54.5 q-108,-57,-244,-57 q-199,0,-314.5,93.5 z M307,317 q0,-100,66.5,-152 q66.5,-52,189.5,-52 q66,0,127.5,22.5 q61.5,22.5,101,53 q39.5,30.5,70.5,62.5 q31,32,45.5,53.5 q14.5,21.5,14.5,23.5 l0,194 l-349,0 q-266,0,-266,-205 z"/>
</g>
<g transform="translate(264 8) scale(0.103075646) translate(911.5 1853) scale(1 -1)">
<path d="M184,1393 q0,41,41,41 l133,0 q23,0,32,-9.5 q9,-9.5,9,-31.5 l0,-133 q0,-23,-9,-32 q-9,-9,-32,-9 l-133,0 q-22,0,-31.5,9 q-9.5,9,-9.5,32 l0,133 z M199,20 l0,1055 q0,21,20,21 l143,0 q21,0,21,-21 l0,-1055 q0,-20,-21,-20 l-143,0 q-20,0,-20,20 z"/>
</g>
<g transform="translate(8 264) scale(0.103075646) translate(353 1853) scale(1 -1)">
<path d="M1454,717 q0,-408,-272,-604 l374,0 q21,0,21,-21 l0,-102 q0,-21,-21,-21 l-768,0 q-292,0,-478.5,199 q-186.5,199,-186.5,549 q0,350,186.5,548.5 q186.5,198.5,479,198.5 q292.5,0,479,-198.5 q186.5,-198.5,186.5,-548.5 z M1132.5,1168.5 q-137.5,152.5,-344,152.5 q-206.5,0,-344,-152.5 q-137.5,-152.5,-137.5,-451.5 q0,-299,137.5,-451.5 q137.5,-152.5,344,-152.5 q206.5,0,344,152.5 q137.5,152.5,137.5,451.5 q0,299,-137.5,451.5 z"/>
</g>
<g transform="translate(264 264) scale(0.103075646) translate(157.5 1853) scale(1 -1)">
<path d="M63,1413 q-2,5,-2,9 q0,12,19,12 l139,0 q25,0,31,-21 l362,-1167 l318,1126 q6,25,29.5,43.5 q23.5,18.5,52.5,18.5 l71,0 q29,0,52.5,-18.5 q23.5,-18.5,29.5,-43.5 l316,-1126 l362,1167 q6,20,31,21 l139,0 q25,0,17,-21 l-424,-1352 q-20,-61,-93,-61 l-61,0 q-37,0,-61.5,18.5 q-24.5,18.5,-30.5,42.5 l-313,1115 l-312,-1115 q-6,-25,-30.5,-43 q-24.5,-18,-61.5,-18 l-61,0 q-72,0,-93,61 l-426,1352 z"/>
</g>
</g>
</svg>