<svg height="512" width="512" xmlns="http://www.w3.org/2000/svg">
<style>
path { fill: black; fill-rule: nonzero; }
</style>
<g>
<g transform="translate(8 8) scale(0.3028083) translate(105 819) scale(1 -1)">
<path d="M475,307 l0,-225 l86,0 l0,-82 l-173,0 l0,48 q-85,-62,-165,-62 q-76,0,-125.5,47.5 q-49.5,47.5,-49.5,108.5 q0,25,11,51.5 q11,26.5,35,53 q24,26.5,71,43.5 q47,17,109,17 q42,0,114,-8 q0,19,-2,29.5 q-2,10.5,-10,27 q-8,16.5,-29.5,24.5 q-21.5,8,-56.5,8 q-69,0,-175,-46 l-34,80 q127,52,210,52 q93,0,138.5,-43.5 q45.5,-43.5,45.5,-123.5 z M388,162 l0,52 q-77,11,-104,11 q-40,0,-69,-8 q-29,-8,-43.5,-18 q-14.5,-10,-22.5,-23.5 q-8,-13.5,-9.5,-21 q-1.5,-7.5,-1.5,-13.5 q0,-27,25.5,-48 q25.5,-21,58.5,-21 q85,0,166,90 z"/>
</g>
<g transform="translate(264 8) scale(0.3028083) translate(109.5 819) scale(1 -1)">
<path d="M115,453 l230,0 l0,-371 l167,0 l0,-82 l-424,0 l0,82 l170,0 l0,289 l-143,0 l0,82 z M239,540 l0,132 l106,0 l0,-132 l-106,-0 z"/>
</g>
<g transform="translate(8 264) scale(0.3028083) translate(109.5 819) scale(1 -1)">
<path d="M515,-3 l52,-64 l-9,-6 q-25,-17,-35.5,-23 q-10.5,-6,-34,-14.5 q-23.5,-8.5,-46.5,-8.5 q-37,0,-91,24 q-39,17,-67,17 q-27,0,-47.5,-8 q-20.5,-8,-65.5,-34 q-1,0,-4,-2 q-3,-2,-4,-3 l-42,72 q27,16,39.5,25.5 q12.5,9.5,36.5,35.5 q-62,29,-94,69 q-70,87,-70,218 q0,140,78,222.5 q78,82.5,188,82.5 q113,0,190.5,-84 q77.5,-84,77.5,-225 q0,-70,-19.5,-125.5 q-19.5,-55.5,-46.5,-86 q-27,-30.5,-61,-50.5 q-34,-20,-57.5,-26 q-23.5,-6,-41.5,-7 l0,-2 l13,0 q17,-14,42,-23 q25,-9,43,-9 q29,0,76,35 z M296,73 q15,0,30,2 q15,2,44.5,14 q29.5,12,50.5,33 q21,21,37.5,64.5 q16.5,43.5,16.5,103.5 q0,55,-14,97.5 q-14,42.5,-34,65.5 q-20,23,-46,38 q-26,15,-45.5,19 q-19.5,4,-36.5,4 q-26,0,-53,-10 q-27,-10,-55.5,-32.5 q-28.5,-22.5,-47,-68.5 q-18.5,-46,-18.5,-108 q0,-109,49.5,-165.5 q49.5,-56.5,121.5,-56.5 z"/>
</g>
<g transform="translate(264 264) scale(0.3028083) translate(109.5 819) scale(1 -1)">
<path d="M0,583 l230,0 l0,-82 l-96,0 l34,-305 l2,0 l102,264 l60,0 l99,-264 l2,0 l36,305 l-97,0 l0,82 l228,0 l0,-82 l-47,0 l-65,-501 l-79,0 l-112,307 l-2,0 l-108,-307 l-79,0 l-60,501 l-48,0 l0,82 z"/>
</g>
</g>
</svg>