<svg height="512" width="512" xmlns="http://www.w3.org/2000/svg">
<style>
path { fill: black; fill-rule: nonzero; }
</style>
<g>
<g transform="translate(8 8) scale(0.063917525) translate(1424.5 2330) scale(1 -1)">
<path d="M68,241 q0,96,34,148 q34,52,116,86 q58,25,146.5,37 q88.5,12,166.5,12 q41,0,80,-3 l0,54 q0,92,-20.5,167.5 q-20.5,75.5,-80.5,108.5 q-21,12,-55.5,18 q-34.5,6,-72.5,6 q-34,0,-67,-7 l-34,-182 q-28,-15,-61,-15 q-26,0,-53.5,15 q-27.5,15,-45.5,40 q-18,25,-18,53 q0,53,84,100 q50,27,118.5,49 q68.5,22,131,34.5 q62.5,12.5,93.5,12.5 q138,0,199,-81 q61,-81,61,-220 l0,-482 q37,-38,79,-62.5 q42,-24.5,94,-36.5 l-12,-58 q-56,-26,-115.5,-41.5 q-59.5,-15.5,-112.5,-18.5 q-16,47,-35.5,84 q-19.5,37,-49.5,73 q-22,-32,-76,-69.5 q-54,-37.5,-118.5,-62.5 q-64.5,-25,-117.5,-25 q-88,0,-146,40.5 q-58,40.5,-85,101.5 q-27,61,-27,124 z M356,112 q13,-6,34,-6 q45,0,111.5,18.5 q66.5,18.5,109.5,40.5 l0,293 q-99,-7,-171,-25 q-72,-18,-113,-38.5 q-41,-20.5,-56,-37.5 q-19,-19,-19,-66 q0,-34,14.5,-72 q14.5,-38,38.5,-67.5 q24,-29.5,51,-39.5 z"/>
</g>
<g transform="translate(264 8) scale(0.063917525) translate(1633.5 2330) scale(1 -1)">
<path d="M380,1175 q-11,-10,-55,-10 q-39,0,-76,8.5 q-37,8.5,-48,23.5 q-12,15,-12,55 q0,39,10,78.5 q10,39.5,24,48.5 q15,11,53,11 q38,0,78,-10.5 q40,-10.5,50,-23.5 q11,-14,11,-50 q0,-38,-10.5,-79 q-10.5,-41,-24.5,-52 z M215,126 l0,650 l-154,77 l9,47 l324,65 l0,-839 l165,-44 l-18,-82 l-487,0 l15,84 l146,42 z"/>
</g>
<g transform="translate(8 264) scale(0.063917525) translate(1235.5 2330) scale(1 -1)">
<path d="M1281,-322 q-62,0,-208,94 q-146,94,-275,206 q-58,-13,-126,-13 q-164,0,-296.5,79.5 q-132.5,79.5,-209,228.5 q-76.5,149,-76.5,350 q0,215,75.5,396.5 q75.5,181.5,223,290.5 q147.5,109,354.5,109 q156,0,287,-79.5 q131,-79.5,208.5,-229 q77.5,-149.5,77.5,-348.5 q0,-219,-79.5,-403 q-79.5,-184,-224.5,-288 l307,-327 l-38,-66 z M414,289 q61,-77,153,-121.5 q92,-44.5,193,-44.5 q69,0,132.5,21.5 q63.5,21.5,107.5,68.5 q54,58,82.5,178 q28.5,120,28.5,225 q0,124,-10.5,209.5 q-10.5,85.5,-40.5,156.5 q-35,83,-98.5,146 q-63.5,63,-144.5,98 q-81,35,-166,35 q-66,0,-130.5,-21 q-64.5,-21,-109.5,-64 q-39,-38,-65,-110.5 q-26,-72.5,-38.5,-153.5 q-12.5,-81,-12.5,-147 q0,-150,25,-270 q25,-120,94,-206 z"/>
</g>
<g transform="translate(264 264) scale(0.063917525) translate(940.5 2330) scale(1 -1)">
<path d="M2008,1384 l-17,-95 l-127,-37 l-426,-1252 l-141,-35 l-304,956 l-306,-921 l-144,-35 l-410,1286 l-142,37 l18,96 l517,0 l-16,-93 l-158,-41 l301,-1015 l290,843 l-56,177 l-139,38 l16,91 l541,0 l-16,-94 l-195,-42 l312,-1013 l319,1020 l-201,34 l19,95 l465,0 z"/>
</g>
</g>
</svg>