<svg height="512" width="512" xmlns="http://www.w3.org/2000/svg">
<style>
path { fill: black; fill-rule: nonzero; }
</style>
<g transform="translate(8 8) scale(0.37265214) translate(127 972) scale(1 -1)">
<path d="M405,-8 q-6,0,-9,5 l-260,517 q-14,29,-29,53 q-15,24,-29,43 q-8,10,-27,16.5 q-19,6.5,-31,6.5 q-4,0,-4,13 q0,12,4,16 l126,-5 l105,5 q2,-4,1.5,-16.5 q-0.5,-12.5,-3.5,-12.5 q-16,0,-33,-7.5 q-17,-7.5,-17,-21.5 q0,-30,23,-74 l207,-410 q3,-5,8,-2.5 q5,2.5,7,7.5 l83,173 l-105,216 q-14,29,-29,53 q-15,24,-29,43 q-8,10,-27,16.5 q-19,6.5,-31,6.5 q-4,0,-4,15 q0,10,4,14 l126,-5 l104,5 q2,-4,1.5,-16.5 q-0.5,-12.5,-3.5,-12.5 q-16,0,-32.5,-7 q-16.5,-7,-16.5,-22 q0,-13,5.5,-31.5 q5.5,-18.5,17.5,-42.5 l66,-135 l70,147 q14,29,14,58 q0,17,-21.5,25 q-21.5,8,-37.5,8 q-4,0,-4,13 q0,12,4,16 q40,-2,65.5,-4 q25.5,-2,35.5,-1 l104,5 q2,-4,1.5,-16.5 q-0.5,-12.5,-3.5,-12.5 q-6,0,-20,-3.5 q-14,-3.5,-28,-10 q-14,-6.5,-21,-14.5 q-9,-11,-23.5,-36.5 q-14.5,-25.5,-34.5,-66.5 l-77,-158 l109,-224 q5,-9,12,5 l179,411 q9,20,13,36 q4,16,4,27 q0,17,-20.5,25.5 q-20.5,8.5,-36.5,8.5 q-4,0,-4,13 q0,12,4,16 q40,-2,65.5,-3.5 q25.5,-1.5,36.5,-1.5 q29,0,54,2 q25,2,45,3 q2,-8,2,-15 q0,-14,-4,-14 q-10,0,-32,-7.5 q-22,-7.5,-33,-20.5 q-28,-34,-58,-101 l-212,-480 q-14,-32,-39,-32 q-6,0,-9,5 l-122,250 l-108,-223 q-15,-32,-39,-32 z"/>
</g>
</svg>