<svg height="512" width="512" xmlns="http://www.w3.org/2000/svg">
<style>
path { fill: black; fill-rule: nonzero; }
</style>
<g transform="scale(0.496) translate(-7.5, 983) scale(1, -1)">
<path d="M68,241 q0,96,34,148 q34,52,116,86 q58,25,146.5,37 q88.5,12,166.5,12 q41,0,80,-3 l0,54 q0,92,-20.5,167.5 q-20.5,75.5,-80.5,108.5 q-21,12,-55.5,18 q-34.5,6,-72.5,6 q-34,0,-67,-7 l-34,-182 q-28,-15,-61,-15 q-26,0,-53.5,15 q-27.5,15,-45.5,40 q-18,25,-18,53 q0,53,84,100 q50,27,118.5,49 q68.5,22,131,34.5 q62.5,12.5,93.5,12.5 q138,0,199,-81 q61,-81,61,-220 l0,-482 q37,-38,79,-62.5 q42,-24.5,94,-36.5 l-12,-58 q-56,-26,-115.5,-41.5 q-59.5,-15.5,-112.5,-18.5 q-16,47,-35.5,84 q-19.5,37,-49.5,73 q-22,-32,-76,-69.5 q-54,-37.5,-118.5,-62.5 q-64.5,-25,-117.5,-25 q-88,0,-146,40.5 q-58,40.5,-85,101.5 q-27,61,-27,124 z M356,112 q13,-6,34,-6 q45,0,111.5,18.5 q66.5,18.5,109.5,40.5 l0,293 q-99,-7,-171,-25 q-72,-18,-113,-38.5 q-41,-20.5,-56,-37.5 q-19,-19,-19,-66 q0,-34,14.5,-72 q14.5,-38,38.5,-67.5 q24,-29.5,51,-39.5 z"/>
</g>
</svg>