<svg height="3880" width="1243" xmlns="http://www.w3.org/2000/svg">
<style>
path { fill: black; fill-rule: nonzero; }
</style>
<g transform="translate(0, 2330) scale(1, -1)">
<path d="M62,853 l9,47 l274,65 l36,-165 q89,70,197.5,121.5 q108.5,51.5,188.5,51.5 q65,0,121.5,-33.5 q56.5,-33.5,93,-113 q36.5,-79.5,36.5,-208.5 l0,-492 l168,-44 l-17,-82 l-452,0 l17,87 l105,44 l0,419 q0,103,-28,169 q-28,66,-67,95 q-20,13,-39,13 q-40,0,-142.5,-24 q-102.5,-24,-172.5,-48 q1,-6,3,-25.5 q2,-19.5,2,-31.5 l0,-572 l169,-45 l-18,-81 l-489,0 l17,88 l142,48 l0,639 l-154,78 z"/>
</g>
</svg>