<svg height="3880" width="1022" xmlns="http://www.w3.org/2000/svg">
<style>
path { fill: black; fill-rule: nonzero; }
</style>
<g transform="translate(0, 2330) scale(1, -1)">
<path d="M73,437 q0,139,56.5,263 q56.5,124,157,199.5 q100.5,75.5,227.5,75.5 q123,0,221,-50.5 q98,-50.5,156,-154.5 q58,-104,58,-258 q0,-140,-57.5,-264 q-57.5,-124,-156.5,-198.5 q-99,-74.5,-216,-74.5 q-128,0,-228.5,49.5 q-100.5,49.5,-159,153.5 q-58.5,104,-58.5,259 z M568,107 q45,0,87,13.5 q42,13.5,68,39.5 q26,26,39,91.5 q13,65.5,13,123.5 q0,142,-43.5,248.5 q-43.5,106.5,-118.5,163 q-75,56.5,-167,56.5 q-57,0,-89,-13.5 q-32,-13.5,-58,-38.5 q-22,-25,-37,-90.5 q-15,-65.5,-15,-128.5 q0,-116,35.5,-222.5 q35.5,-106.5,108,-174.5 q72.5,-68,177.5,-68 z"/>
</g>
</svg>