<svg height="3880" width="1053" xmlns="http://www.w3.org/2000/svg">
<style>
path { fill: black; fill-rule: nonzero; }
</style>
<g transform="translate(0, 2330) scale(1, -1)">
<path d="M617,-397 l-16,-78 l-571,0 l15,87 l144,49 l0,1114 l-154,78 l9,47 l274,60 l34,-135 q68,47,115,75.5 q47,28.5,104.5,50.5 q57.5,22,113.5,22 q105,0,181,-55 q76,-55,116.5,-160 q40.5,-105,40.5,-251 q0,-135,-55.5,-257.5 q-55.5,-122.5,-150.5,-196.5 q-45,-35,-98.5,-56.5 q-53.5,-21.5,-109.5,-21.5 q-76,0,-139,26 q-63,26,-102,79 l0,-429 l249,-48 z M364,770 q4,-31,4,-72 l0,-458 q52,-64,135,-93 q83,-29,166,-29 q63,0,93,15 q19,9,39,51 q20,42,32.5,106 q12.5,64,12.5,135 q0,135,-41.5,233 q-41.5,98,-109.5,151 q-28,22,-67,22 q-42,0,-120.5,-18.5 q-78.5,-18.5,-143.5,-42.5 z"/>
</g>
</svg>