<svg height="512" width="512" xmlns="http://www.w3.org/2000/svg">
<style>
path { fill: black; fill-rule: nonzero; }
</style>
<g transform="translate(8 8) scale(0.20478943) translate(506.5 1816.5) scale(1 -1)">
<path d="M1281,-322 q-62,0,-208,94 q-146,94,-275,206 q-58,-13,-126,-13 q-164,0,-296.5,79.5 q-132.5,79.5,-209,228.5 q-76.5,149,-76.5,350 q0,215,75.5,396.5 q75.5,181.5,223,290.5 q147.5,109,354.5,109 q156,0,287,-79.5 q131,-79.5,208.5,-229 q77.5,-149.5,77.5,-348.5 q0,-219,-79.5,-403 q-79.5,-184,-224.5,-288 l307,-327 l-38,-66 z M414,289 q61,-77,153,-121.5 q92,-44.5,193,-44.5 q69,0,132.5,21.5 q63.5,21.5,107.5,68.5 q54,58,82.5,178 q28.5,120,28.5,225 q0,124,-10.5,209.5 q-10.5,85.5,-40.5,156.5 q-35,83,-98.5,146 q-63.5,63,-144.5,98 q-81,35,-166,35 q-66,0,-130.5,-21 q-64.5,-21,-109.5,-64 q-39,-38,-65,-110.5 q-26,-72.5,-38.5,-153.5 q-12.5,-81,-12.5,-147 q0,-150,25,-270 q25,-120,94,-206 z"/>
</g>
</svg>