<svg height="512" width="512" xmlns="http://www.w3.org/2000/svg">
<style>
path { fill: black; fill-rule: nonzero; }
</style>
<g transform="translate(8 8) scale(0.20615129) translate(353 1853) scale(1 -1)">
<path d="M1454,717 q0,-408,-272,-604 l374,0 q21,0,21,-21 l0,-102 q0,-21,-21,-21 l-768,0 q-292,0,-478.5,199 q-186.5,199,-186.5,549 q0,350,186.5,548.5 q186.5,198.5,479,198.5 q292.5,0,479,-198.5 q186.5,-198.5,186.5,-548.5 z M1132.5,1168.5 q-137.5,152.5,-344,152.5 q-206.5,0,-344,-152.5 q-137.5,-152.5,-137.5,-451.5 q0,-299,137.5,-451.5 q137.5,-152.5,344,-152.5 q206.5,0,344,152.5 q137.5,152.5,137.5,451.5 q0,299,-137.5,451.5 z"/>
</g>
</svg>