<svg height="2406" width="1413" xmlns="http://www.w3.org/2000/svg">
<style>
path { fill: black; fill-rule: nonzero; }
</style>
<g transform="translate(0, 1853) scale(1, -1)">
<path d="M205,20 l0,1055 q0,21,20,21 l113,0 q20,0,22,-21 l19,-112 q12,17,52,51.5 q40,34.5,78,55.5 q98,56,228,56 q207,0,339,-128 q132,-128,132,-353 l0,-625 q0,-20,-20,-20 l-144,0 q-20,0,-20,20 l0,625 q0,162,-84,250 q-84,88,-213,88 q-59,0,-116.5,-22.5 q-57.5,-22.5,-95.5,-53 q-38,-30.5,-67,-62.5 q-59,-63,-59,-77 l0,-748 q0,-20,-20,-20 l-144,0 q-20,0,-20,20 z"/>
</g>
</svg>