<svg height="2406" width="1311" xmlns="http://www.w3.org/2000/svg">
<style>
path { fill: black; fill-rule: nonzero; }
</style>
<g transform="translate(0, 1853) scale(1, -1)">
<path d="M655.5,-31 q-239.5,0,-386,150.5 q-146.5,150.5,-146.5,430 q0,279.5,146.5,428 q146.5,148.5,386,148.5 q239.5,0,386,-148.5 q146.5,-148.5,146.5,-428 q0,-279.5,-146.5,-430 q-146.5,-150.5,-386,-150.5 z M655.5,983 q-155.5,0,-252,-108.5 q-96.5,-108.5,-96.5,-324.5 q0,-216,96.5,-326.5 q96.5,-110.5,252,-110.5 q155.5,0,252,110.5 q96.5,110.5,96.5,326.5 q0,216,-96.5,324.5 q-96.5,108.5,-252,108.5 z"/>
</g>
</svg>