<svg height="2406" width="1424" xmlns="http://www.w3.org/2000/svg">
<style>
path { fill: black; fill-rule: nonzero; }
</style>
<g transform="translate(0, 1853) scale(1, -1)">
<path d="M205,-317 l0,1392 q0,20,20,21 l113,0 q20,0,22,-21 l19,-112 q11,17,50.5,51.5 q39.5,34.5,75.5,55.5 q93,56,212,56 q219,0,360.5,-148.5 q141.5,-148.5,141.5,-428.5 q0,-280,-145.5,-430 q-145.5,-150,-377.5,-150 q-78,0,-154.5,15.5 q-76.5,15.5,-115.5,31.5 l-37,15 l0,-348 q0,-20,-20,-21 l-144,0 q-20,1,-20,21 z M389,174 q133,-61,291,-61 q158,0,256,108.5 q98,108.5,98,324.5 q0,216,-90,326.5 q-90,110.5,-237,110.5 q-143,0,-261,-138 q-57,-66,-57,-77 l-0,-594 z"/>
</g>
</svg>