<svg height="1000" width="610" xmlns="http://www.w3.org/2000/svg">
<style>
path { fill: black; fill-rule: nonzero; }
</style>
<g transform="translate(0, 730) scale(1, -1)">
<path d="M506,50 c-1,50,-2,114,-2,160 l0,96 c0,131,-42,185,-128,185 c-62,0,-130,-37,-179,-91 l-8,81 l-15,10 l-140,-61 l0,-35 l79,-9 c2,-40,3,-70,3,-125 l0,-51 c0,-45,-1,-110,-2,-160 l-74,-14 l0,-36 l232,0 l0,36 l-69,14 c-1,50,-2,116,-2,160 l0,149 c51,42,90,60,136,60 c59,0,83,-29,83,-121 l0,-88 c0,-46,-1,-111,-2,-160 l-74,-14 l0,-36 l232,0 l0,36 z"/>
</g>
</svg>