<svg height="1000" width="573" xmlns="http://www.w3.org/2000/svg">
<style>
path { fill: black; fill-rule: nonzero; }
</style>
<g transform="translate(0, 730) scale(1, -1)">
<path d="M202,379 c51,42,90,55,121,55 c73,0,125,-72,125,-200 c0,-129,-61,-192,-136,-192 c-37,0,-73,15,-110,51 z M190,481 l-15,10 l-140,-61 l0,-35 l79,-9 c2,-40,3,-70,3,-125 l0,-289 c0,-54,-1,-107,-2,-162 l-80,-14 l0,-35 l257,0 l0,35 l-91,15 c-1,54,-2,108,-2,161 l0,79 c42,-50,87,-66,133,-66 c117,0,206,103,206,257 c0,155,-84,249,-191,249 c-53,0,-104,-23,-151,-74 z"/>
</g>
</svg>