<svg height="512" width="512" xmlns="http://www.w3.org/2000/svg">
<style>
path { fill: black; fill-rule: nonzero; }
</style>
<g>
<g transform="translate(8 8) scale(0.50509167) translate(-59 463.5) scale(1 -1)">
<path d="M461,296 l0,-249 l89,0 l0,-47 l-139,0 l0,72 q-93,-86,-191,-86 q-71,0,-116,43 q-45,43,-45,98 q0,23,10.5,47 q10.5,24,33,48.5 q22.5,24.5,66,40 q43.5,15.5,102.5,15.5 q74,0,140,-13 l0,31 q0,14,-1,23.5 q-1,9.5,-7,27 q-6,17.5,-18,28 q-12,10.5,-36.5,19 q-24.5,8.5,-58.5,8.5 q-75,0,-171,-42 l-19,45 q108,45,191,45 q48,0,82.5,-13 q34.5,-13,51,-29 q16.5,-16,25.5,-41.5 q9,-25.5,10,-38.5 q1,-13,1,-32 z M411,139 l0,80 q-63,11,-130,11 q-46,0,-80.5,-10 q-34.5,-10,-50.5,-22.5 q-16,-12.5,-25,-30 q-9,-17.5,-10.5,-26 q-1.5,-8.5,-1.5,-15.5 q0,-37,32,-64.5 q32,-27.5,74,-27.5 q98,0,192,105 z"/>
</g>
<g transform="translate(264 8) scale(0.37804878) translate(27.5 656) scale(1 -1)">
<path d="M130,430 l197,0 l0,-383 l173,0 l0,-47 l-399,0 l0,47 l176,0 l0,336 l-147,0 l0,47 z M255,537 l0,119 l72,0 l0,-119 l-72,-0 z"/>
</g>
<g transform="translate(8 264) scale(0.3502825) translate(54 580) scale(1 -1)">
<path d="M516,-52 l31,-36 q-57,-40,-101,-40 q-31,0,-85,24 q-45,20,-78,20 q-30,0,-53,-9 q-23,-9,-65,-32 l-23,37 q54,35,85,81 q-84,26,-134,105 q-50,79,-50,183 q0,137,75,218 q75,81,181,81 q110,0,184,-84 q74,-84,74,-219 q0,-54,-14.5,-104 q-14.5,-50,-44.5,-94.5 q-30,-44.5,-85.5,-70.5 q-55.5,-26,-129.5,-25 q-3,-4,-7,-8 q-4,-4,-9,-9 q-1,-1,-2,-2 l-2,0 l0,-2 q2,0,9,0.5 q7,0.5,13,0.5 q39,0,88,-20 q52,-21,69,-21 q35,0,74,26 z M97,282 q0,-98,54.5,-173.5 q54.5,-75.5,148.5,-75.5 q94,0,148.5,74.5 q54.5,74.5,54.5,174.5 q0,101,-55,174.5 q-55,73.5,-148,73.5 q-96,0,-149.5,-75.5 q-53.5,-75.5,-53.5,-172.5 z"/>
</g>
<g transform="translate(264 264) scale(0.4161074) translate(-2 579.5) scale(1 -1)">
<path d="M2,563 l197,0 l0,-47 l-101,0 l56,-420 l2,0 l129,364 l34,0 l126,-364 l2,0 l58,420 l-102,0 l0,47 l195,0 l0,-47 l-46,0 l-75,-516 l-50,0 l-127,364 l-2,0 l-129,-364 l-50,0 l-70,516 l-47,0 l0,47 z"/>
</g>
</g>
</svg>