<svg height="512" width="512" xmlns="http://www.w3.org/2000/svg">
<style>
path { fill: black; fill-rule: nonzero; }
</style>
<g transform="translate(8 8) scale(0.17452498) translate(477.5 2104) scale(1 -1)">
<path d="M1811,1562 q70,0,70,-52 l0,-7 q-86,-83,-135.5,-243.5 q-49.5,-160.5,-49.5,-349.5 q0,-72,10,-109.5 q10,-37.5,10,-38.5 q-119,-209,-174,-430 q-21,-85,-21,-162.5 q0,-77.5,53,-159.5 l0,-4 q0,-56,-113,-56 q-48,0,-81,28 q-53,46,-80,87 q-29,-71,-114,-103 q-35,-12,-72,-12 q-37,0,-59,15 q-22,15,-32,45 q60,82,60,185 q0,36,-13,99 q-13,63,-24,121 q-31,165,-74,331 l-15,59 q-58,-175,-106,-362.5 q-48,-187.5,-48,-269 q0,-81.5,53,-163.5 l0,-4 q0,-56,-113,-56 q-48,0,-81,28 q-53,46,-80,87 q-29,-71,-114,-103 q-35,-12,-72,-12 q-37,0,-59,15 q-22,15,-32,45 q60,82,60,185 q0,54,-26,167.5 q-26,113.5,-54.5,187.5 q-28.5,74,-51.5,107.5 q-23,33.5,-43,53.5 q-20,20,-31.5,29.5 q-11.5,9.5,-11.5,18.5 q0,9,8,19.5 q8,10.5,18,21.5 q26,30,26,120 q0,182,-53.5,342 q-53.5,160,-139.5,241 l0,4 q0,55,91.5,55 q91.5,0,177.5,-105 q53,105,161,105 q58,0,78,-15 q33,-25,41,-44 q-60,-80,-60,-190 q0,-57,14,-130 q14,-73,67,-423 q53,-350,58,-392 q52,166,52,224 q0,58,-8,89.5 q-8,31.5,-15.5,45.5 q-7.5,14,-7.5,18 q0,4,4,8 q153,177,153,524 q0,50,-17,98 q-17,48,-31,70 q-14,22,-40,58 l0,1 q0,18,22,33 q39,25,78.5,25 q39.5,0,64.5,-11 q25,-11,41,-26 q34,-31,53,-68 q2,4,5,11 q3,7,15,25.5 q12,18.5,27,32 q15,13.5,40,25 q25,11.5,54,11.5 q29,0,51.5,-6 q22.5,-6,34.5,-15 q25,-19,33,-38 q-63,-76,-63,-193 q0,-115,82,-503.5 q82,-388.5,90,-438.5 q32,167,32,229 q0,62,-7,94 q-7,32,-13.5,44.5 q-6.5,12.5,-5.5,18 q1,5.5,5.5,17 q4.5,11.5,16.5,47.5 q12,36,23,72.5 q11,36.5,24,89 q13,52.5,23,102.5 q22,116,22,233 q0,117,-53,188 q1,2,2,6 q1,4,7.5,14.5 q6.5,10.5,14.5,18.5 q22,20,55.5,20 q33.5,0,61,-11 q27.5,-11,42.5,-26 q34,-33,47,-68 q36,43,82,74 q46,31,80,31 z"/>
</g>
</svg>