<svg height="512" width="512" xmlns="http://www.w3.org/2000/svg">
<style>
path { fill: black; fill-rule: nonzero; }
</style>
<g transform="translate(8 8) scale(0.6056166) translate(105 819) scale(1 -1)">
<path d="M461,296 l0,-249 l89,0 l0,-47 l-139,0 l0,72 q-93,-86,-191,-86 q-71,0,-116,43 q-45,43,-45,98 q0,23,10.5,47 q10.5,24,33,48.5 q22.5,24.5,66,40 q43.5,15.5,102.5,15.5 q74,0,140,-13 l0,31 q0,14,-1,23.5 q-1,9.5,-7,27 q-6,17.5,-18,28 q-12,10.5,-36.5,19 q-24.5,8.5,-58.5,8.5 q-75,0,-171,-42 l-19,45 q108,45,191,45 q48,0,82.5,-13 q34.5,-13,51,-29 q16.5,-16,25.5,-41.5 q9,-25.5,10,-38.5 q1,-13,1,-32 z M411,139 l0,80 q-63,11,-130,11 q-46,0,-80.5,-10 q-34.5,-10,-50.5,-22.5 q-16,-12.5,-25,-30 q-9,-17.5,-10.5,-26 q-1.5,-8.5,-1.5,-15.5 q0,-37,32,-64.5 q32,-27.5,74,-27.5 q98,0,192,105 z"/>
</g>
</svg>