<svg height="512" width="512" xmlns="http://www.w3.org/2000/svg">
<style>
path { fill: black; fill-rule: nonzero; }
</style>
<g transform="translate(8 8) scale(0.27479225) translate(597.5 1754) scale(1 -1)">
<path d="M155,1310 q87,0,150,-77 q31,46,99,69 q25,8,51,8 q26,0,45,-5.5 q19,-5.5,28,-13.5 q20,-16,23,-35 q-63,-61,-86.5,-128 q-23.5,-67,-23.5,-176 q0,-109,10,-171.5 q10,-62.5,25,-90 q15,-27.5,29.5,-41.5 q14.5,-14,24.5,-21.5 q10,-7.5,10,-15 q0,-7.5,-10,-15 q-10,-7.5,-24.5,-23.5 q-14.5,-16,-29.5,-43 q-35,-63,-35,-199 q0,-136,24,-204.5 q24,-68.5,86,-124.5 q0,-32,-51,-48 q-19,-6,-53,-6 q-34,0,-71.5,19.5 q-37.5,19.5,-53.5,38.5 l-17,19 q-31,-46,-99,-68 q-25,-9,-58,-9 q-33,0,-57,13.5 q-24,13.5,-28,27.5 l-4,13 q62,56,86,124.5 q24,68.5,24,166.5 q0,98,-10,154 q-10,56,-24.5,83 q-14.5,27,-29.5,43 q-15,16,-25,23.5 q-10,7.5,-10,15 q0,7.5,10,15 q10,7.5,25,21.5 q15,14,29,41 q35,66,35,218 q0,152,-23.5,219 q-23.5,67,-86.5,129 q0,32,51,48 q19,6,45,6 z M303,1754 l210,-184 l-211,-190 l-53,46 q-53,45,-105,91 l-53,46 q0,6,101.5,98.5 q101.5,92.5,110.5,92.5 z"/>
</g>
</svg>